<?xml version="1.0" encoding="UTF-8"?>
<svg id="Capa_2" data-name="Capa 2" xmlns="http://www.w3.org/2000/svg" xmlns:xlink="http://www.w3.org/1999/xlink" viewBox="0 0 71.52 24.45">
  <defs>
    <style>
      .cls-1 {
        clip-path: url(#clippath-6);
      }

      .cls-2 {
        clip-path: url(#clippath-7);
      }

      .cls-3 {
        clip-path: url(#clippath-4);
      }

      .cls-4 {
        clip-path: url(#clippath-9);
      }

      .cls-5 {
        fill: #0056b3;
      }

      .cls-6 {
        fill: none;
      }

      .cls-7 {
        fill: #f6426f;
      }

      .cls-8 {
        clip-path: url(#clippath-1);
      }

      .cls-9 {
        isolation: isolate;
      }

      .cls-10 {
        clip-path: url(#clippath-5);
      }

      .cls-11 {
        clip-path: url(#clippath-8);
      }

      .cls-12 {
        clip-path: url(#clippath-3);
      }

      .cls-13 {
        fill: #3da745;
      }

      .cls-14 {
        clip-path: url(#clippath-2);
      }

      .cls-15 {
        clip-path: url(#clippath);
      }
    </style>
    <clipPath id="clippath">
      <rect class="cls-6" x="33.6" y="1.65" width="37.92" height="22.8"/>
    </clipPath>
    <clipPath id="clippath-1">
      <rect class="cls-6" x="9.39" y="2.2" width="10.61" height="10.61" transform="translate(-1 12.59) rotate(-45)"/>
    </clipPath>
    <clipPath id="clippath-2">
      <path class="cls-6" d="M12.45,12.76c-2.9-2.9-2.9-7.61,0-10.51l2.25-2.25,2.25,2.25c2.9,2.9,2.9,7.61,0,10.51l-2.25,2.25-2.25-2.25Z"/>
    </clipPath>
    <clipPath id="clippath-3">
      <rect class="cls-6" x="9.36" y="-.03" width="10.56" height="15.12"/>
    </clipPath>
    <clipPath id="clippath-4">
      <rect class="cls-6" y="9.72" width="10.61" height="10.61"/>
    </clipPath>
    <clipPath id="clippath-5">
      <path class="cls-6" d="M3.18,9.72c4.09,0,7.43,3.34,7.43,7.43v3.18h-3.18c-4.09,0-7.43-3.34-7.43-7.43v-3.18h3.18Z"/>
    </clipPath>
    <clipPath id="clippath-6">
      <rect class="cls-6" y="9.57" width="10.8" height="10.8"/>
    </clipPath>
    <clipPath id="clippath-7">
      <rect class="cls-6" x="18.79" y="9.71" width="10.61" height="10.61"/>
    </clipPath>
    <clipPath id="clippath-8">
      <path class="cls-6" d="M18.79,17.14c0-4.09,3.34-7.43,7.43-7.43h3.18v3.18c0,4.09-3.34,7.43-7.43,7.43h-3.18v-3.18Z"/>
    </clipPath>
    <clipPath id="clippath-9">
      <rect class="cls-6" x="18.72" y="9.57" width="10.8" height="10.8"/>
    </clipPath>
  </defs>
  <g id="Capa_1-2" data-name="Capa 1">
    <g class="cls-9">
      <g class="cls-15">
        <path d="M40.16,19.81c-.52,0-.9-.02-1.16-.07-.2-.03-.36-.15-.48-.34-.88-1.46-1.74-3.32-2.57-5.56-.83-2.24-1.5-4.52-2-6.82-.05-.15-.04-.28.03-.38s.19-.16.37-.18c.33-.05.69-.07,1.08-.07.45,0,.89.02,1.32.07.22.02.34.13.38.31.22,1.81.57,3.53,1.05,5.16.48,1.63.97,2.91,1.47,3.85.12.23.23.38.33.45.1.07.21.07.31,0,.1-.07.22-.23.34-.45.54-.97,1.04-2.26,1.51-3.87.47-1.61.82-3.32,1.05-5.14.02-.18.13-.28.34-.31.36-.04.77-.06,1.23-.06.64,0,1.05.01,1.23.04.16,0,.27.06.34.17.06.1.07.23.02.39-.5,2.29-1.17,4.56-2,6.81-.83,2.25-1.69,4.11-2.56,5.58-.12.19-.27.31-.47.34-.28.05-.67.07-1.18.07Z"/>
        <path d="M48.76,8.43c-.46,0-.84-.13-1.14-.38-.3-.25-.45-.57-.45-.96s.15-.72.45-.98c.3-.26.68-.38,1.14-.38s.86.13,1.16.38c.3.25.45.58.45.98s-.15.71-.45.96c-.3.25-.69.38-1.16.38ZM48.8,19.81c-.5,0-.86-.02-1.07-.07-.12-.03-.22-.09-.3-.19-.08-.09-.12-.21-.12-.36,0-4.03.07-7.13.21-9.3,0-.15.04-.27.11-.34.07-.07.16-.12.29-.13.24-.05.54-.07.91-.07.32,0,.59.02.82.07.14.03.23.08.3.14.06.06.1.17.1.33.14,2.17.21,5.27.21,9.31,0,.28-.14.46-.42.53-.29.05-.63.07-1.03.07Z"/>
        <path d="M56.62,19.88c-1.02,0-1.85-.29-2.5-.88-.65-.59-.98-1.42-.99-2.5,0-1.93.06-3.54.19-4.83,0-.09-.03-.17-.1-.24-.07-.07-.15-.11-.24-.11-.63,0-1.1,0-1.4.02-.14,0-.26-.04-.36-.14s-.15-.23-.15-.38v-.89c0-.14.05-.26.15-.36s.22-.15.36-.15h1.4c.11,0,.19-.03.25-.1s.09-.15.09-.26c0-.56.02-1.06.07-1.5.04-.31.2-.49.48-.53.29-.05.6-.07.94-.07s.65.02.94.07c.14.02.25.08.35.17s.13.21.12.36c0,.07-.03.29-.06.64s-.06.63-.06.84c0,.11.03.2.1.27.07.07.15.11.24.11.78,0,1.71-.01,2.77-.04.14,0,.26.05.37.15.1.1.15.22.15.36v1.03c0,.15-.05.27-.15.38s-.22.15-.37.13c-.26-.03-.67-.06-1.24-.07s-.98-.02-1.24-.02c-.46,0-.72.23-.78.7-.09,1.09-.11,2.44-.06,4.06.02.47.16.81.39,1.03s.55.33.95.33c.23,0,.58-.06,1.04-.18s.77-.23.93-.35c.16-.17.33-.21.5-.12.18.09.26.26.25.52,0,.19,0,.44,0,.76,0,.32,0,.57,0,.74-.02.28-.13.48-.34.58-.32.15-.78.26-1.39.35-.6.08-1.14.12-1.6.12Z"/>
        <path d="M67.73,19.55c-.64.22-1.34.33-2.11.33s-1.47-.11-2.11-.33c-.64-.22-1.2-.55-1.68-.97-.48-.43-.85-.97-1.12-1.64-.27-.67-.4-1.43-.4-2.28,0-1.67.49-2.98,1.48-3.94s2.26-1.44,3.83-1.44c1.02,0,1.93.21,2.72.63s1.41,1.04,1.87,1.86.69,1.78.69,2.89c0,.85-.13,1.61-.39,2.28s-.63,1.22-1.11,1.64c-.48.43-1.03.75-1.67.97ZM65.62,17.65c.76,0,1.39-.27,1.87-.82s.72-1.3.72-2.27-.24-1.68-.71-2.23c-.48-.55-1.1-.82-1.87-.82s-1.4.27-1.87.82c-.47.55-.7,1.29-.7,2.23s.24,1.73.71,2.28c.47.54,1.09.81,1.87.81Z"/>
      </g>
    </g>
    <g class="cls-8">
      <g class="cls-14">
        <g class="cls-9">
          <g class="cls-12">
            <rect class="cls-5" x="9.39" y="2.2" width="10.61" height="10.61" transform="translate(-1 12.59) rotate(-45)"/>
          </g>
        </g>
      </g>
    </g>
    <g class="cls-3">
      <g class="cls-10">
        <g class="cls-9">
          <g class="cls-1">
            <rect class="cls-13" y="9.72" width="10.61" height="10.61"/>
          </g>
        </g>
      </g>
    </g>
    <g class="cls-2">
      <g class="cls-11">
        <g class="cls-9">
          <g class="cls-4">
            <rect class="cls-7" x="18.79" y="9.71" width="10.61" height="10.61"/>
          </g>
        </g>
      </g>
    </g>
  </g>
</svg>